# xmcd
#
# Track frame offsets: 
#        150
#        11938
#        24320
#        45337
#        77588
#        91123
#        118798
#        129817
#        171268
#        188084
#        202530
#        226841
#        245642
#        265217
#
# Disc length: 3920 seconds
#
# Revision: 0
# Processed by: cddbd v1.5.2PL0 Copyright (c) Steve Scherf et al.
# Submitted via: ExactAudioCopyFreeDBPlugin 1.0
#
DISCID=a10f4e0e
DTITLE=Dusty Broom - File Under Blues
DYEAR=1995
DGENRE=Blues
TTITLE0=Hole In Her Stocking
TTITLE1=Backseat Blues
TTITLE2=Stone And Steel
TTITLE3=No Use Cryin'
TTITLE4=Walking Man
TTITLE5=Cincinatti Jail
TTITLE6=Annie Maybe
TTITLE7=Wedding Blues
TTITLE8=Dealers Blues
TTITLE9=Away From You
TTITLE10=Let Me Go Home Whiskey
TTITLE11=Smashed Bones
TTITLE12=Just Another Song About The Country Sung By A City Boy
TTITLE13=Hammer Song
EXTD=
EXTT0=
EXTT1=
EXTT2=
EXTT3=
EXTT4=
EXTT5=
EXTT6=
EXTT7=
EXTT8=
EXTT9=
EXTT10=
EXTT11=
EXTT12=
EXTT13=
PLAYORDER=
